# xmcd
#
# Track frame offsets:
#	150
#	32885
#	52337
#	78112
#	100350
#	125300
#	154465
#	183737
#	213312
#
# Disc length: 3319 seconds
#
# Revision: 1
# Processed by: cddbd v1.5.2PL0 Copyright (c) Steve Scherf et al.
# Submitted via: audiograbber 1.83.01
#
DISCID=7f0cf509
DTITLE=Kenny Burrell - Stolen Moments (Disk1)
DYEAR=2000
DGENRE=Jazz
TTITLE0=Tin Tin Deo 
TTITLE1=La Petite Mambo 
TTITLE2=I Remember You 
TTITLE3=When Lights Are Low 
TTITLE4=Li'l Darlin' 
TTITLE5=It Shouldn't Happen To A Dream 
TTITLE6=Moon And Sand
TTITLE7=My Sand 
TTITLE8=Stolen Moments
EXTD=
EXTT0=
EXTT1=
EXTT2=
EXTT3=
EXTT4=
EXTT5=
EXTT6=
EXTT7=
EXTT8=
PLAYORDER=
